<svg width="432" height="148" viewBox="0 0 432 148" fill="none" xmlns="http://www.w3.org/2000/svg">
<rect width="116" height="112" rx="10" fill="#411C8C" fill-opacity="0.8"/>
<path d="M27.68 93.08C25.12 92.3333 23.3333 91.5867 22.32 90.84C21.36 90.0933 20.88 89.16 20.88 88.04C20.88 87.1867 21.12 85.9867 21.6 84.44C22.08 82.8933 22.7733 81.08 23.68 79C24.64 76.8667 25.76 74.52 27.04 71.96C28.3733 69.4 29.8667 66.6533 31.52 63.72C30.1333 63.6667 28.88 63.64 27.76 63.64C26.6933 63.5867 25.8133 63.56 25.12 63.56C25.44 62.76 26.3467 62.0667 27.84 61.48C29.3333 60.8933 31.3067 60.3867 33.76 59.96C35.84 56.4933 38.0533 53.1867 40.4 50.04C42.8 46.8933 45.2 44.0133 47.6 41.4C50 38.7333 52.4 36.4133 54.8 34.44C57.2 32.4133 59.4933 30.8133 61.68 29.64C61.7333 29.2667 61.76 28.9467 61.76 28.68C61.8133 28.4133 61.84 28.2267 61.84 28.12C62.5867 28.12 63.5733 28.3067 64.8 28.68C66.08 29.0533 67.3067 29.5067 68.48 30.04C69.7067 30.5733 70.7733 31.1333 71.68 31.72C72.64 32.2533 73.1733 32.7067 73.28 33.08C71.52 36.1733 69.7867 40.8133 68.08 47C66.3733 53.1333 64.96 60.4933 63.84 69.08C63.5733 71.2133 63.3333 73.64 63.12 76.36C62.96 79.08 62.88 82.12 62.88 85.48C62.88 86.6533 62.88 87.8533 62.88 89.08C62.88 90.3067 62.9333 91.5867 63.04 92.92C62.9333 92.9733 62.8267 93 62.72 93C62.6133 93 62.4 93 62.08 93C61.3333 93 60.4533 92.8667 59.44 92.6C58.48 92.3867 57.52 92.0933 56.56 91.72C55.6533 91.4 54.8533 91.0267 54.16 90.6C53.52 90.1733 53.12 89.8 52.96 89.48C52.9067 88.7867 52.88 88.0933 52.88 87.4C52.88 86.76 52.88 86.0667 52.88 85.32C52.88 82.0133 52.9867 78.6533 53.2 75.24C53.4667 71.8267 53.8933 68.3067 54.48 64.68C53.7333 64.6267 52.7467 64.5733 51.52 64.52C50.2933 64.4133 48.9067 64.3333 47.36 64.28C45.8667 64.2267 44.24 64.1733 42.48 64.12C40.7733 64.0133 39.0933 63.9333 37.44 63.88C36.16 66.28 34.96 68.68 33.84 71.08C32.72 73.4267 31.76 75.8 30.96 78.2C30.0533 80.76 29.3067 83.32 28.72 85.88C28.1867 88.44 27.84 90.84 27.68 93.08ZM58.56 45C58.7733 44.2533 59.0133 43.24 59.28 41.96C59.6 40.6267 59.8933 39.24 60.16 37.8C58.8267 38.28 57.3333 39.16 55.68 40.44C54.08 41.72 52.4 43.32 50.64 45.24C48.9333 47.1067 47.1733 49.24 45.36 51.64C43.6 53.9867 41.8933 56.4933 40.24 59.16C44.72 58.7867 49.8133 58.5467 55.52 58.44C55.9467 56.2 56.4 53.9867 56.88 51.8C57.4133 49.56 57.9733 47.2933 58.56 45Z" fill="white"/>
<path d="M78.764 26.184C77.804 26.184 77.06 25.92 76.532 25.392C76.028 24.84 75.776 24.18 75.776 23.412C75.776 23.22 75.8 22.992 75.848 22.728C75.92 22.464 76.004 22.236 76.1 22.044C76.412 22.188 76.868 22.296 77.468 22.368C78.092 22.416 78.812 22.44 79.628 22.44C80.852 22.44 82.232 22.392 83.768 22.296C85.328 22.176 86.816 22.056 88.232 21.936C89.648 21.816 90.896 21.708 91.976 21.612C93.056 21.492 93.752 21.432 94.064 21.432C94.952 21.432 95.588 21.768 95.972 22.44C96.38 23.088 96.68 23.964 96.872 25.068C96.248 25.02 95.624 24.984 95 24.96C94.4 24.912 93.884 24.888 93.452 24.888C92.684 24.888 91.904 24.912 91.112 24.96C90.344 25.008 89.564 25.08 88.772 25.176C88.436 25.872 88.064 26.7 87.656 27.66C87.248 28.596 86.84 29.58 86.432 30.612C86.048 31.644 85.676 32.676 85.316 33.708C84.956 34.716 84.644 35.628 84.38 36.444C83.852 38.028 83.384 39.492 82.976 40.836C82.592 42.18 82.244 43.44 81.932 44.616C81.644 45.768 81.392 46.872 81.176 47.928C80.96 48.984 80.768 50.016 80.6 51.024C78.992 50.784 77.648 49.776 76.568 48C76.76 47.256 76.988 46.452 77.252 45.588C77.54 44.7 77.864 43.704 78.224 42.6C78.608 41.472 79.052 40.2 79.556 38.784C80.06 37.368 80.636 35.76 81.284 33.96C81.524 33.288 81.776 32.592 82.04 31.872C82.304 31.128 82.556 30.396 82.796 29.676C83.06 28.956 83.288 28.26 83.48 27.588C83.696 26.916 83.876 26.304 84.02 25.752C83.012 25.872 82.052 25.98 81.14 26.076C80.252 26.148 79.46 26.184 78.764 26.184Z" fill="white"/>
<path d="M151.344 62.224C151.088 62.9067 150.789 63.632 150.448 64.4C150.192 65.168 149.936 65.8933 149.68 66.576L150.576 66.704C151.088 66.7893 151.557 66.8747 151.984 66.96C152.496 66.96 152.965 66.96 153.392 66.96C154.075 66.96 154.672 66.9173 155.184 66.832C155.696 66.6613 156.08 66.5333 156.336 66.448C157.019 66.2773 157.445 66.064 157.616 65.808C157.787 65.552 157.872 65.424 157.872 65.424C157.872 65.0827 158 64.7413 158.256 64.4C158.512 63.9733 158.811 63.76 159.152 63.76C159.579 63.76 159.92 64.144 160.176 64.912C160.176 64.912 160.133 65.3387 160.048 66.192C160.048 67.0453 158.981 67.8987 156.848 68.752C155.397 69.3493 152.923 69.7333 149.424 69.904H148.144C147.632 71.0987 147.077 72.2933 146.48 73.488C145.968 74.5973 145.413 75.7067 144.816 76.816C143.024 80.2293 141.488 82.7467 140.208 84.368C139.013 85.9893 138.075 87.2267 137.392 88.08C136.709 88.848 136.24 89.7867 135.984 90.896C135.899 91.408 135.813 91.8773 135.728 92.304C135.728 92.7307 135.728 93.1573 135.728 93.584C135.728 96.7413 136.624 99.0453 138.416 100.496C140.293 101.947 142.085 102.672 143.792 102.672C145.755 102.672 147.717 101.989 149.68 100.624C151.643 99.1733 153.264 97.8507 154.544 96.656C155.568 95.8027 156.336 95.376 156.848 95.376C157.189 95.376 157.36 95.5467 157.36 95.888C157.36 96.4853 156.891 97.424 155.952 98.704C155.44 99.3867 154.587 100.325 153.392 101.52C152.197 102.715 150.704 103.824 148.912 104.848C147.12 105.787 145.115 106.256 142.896 106.256C138.459 106.256 135.472 105.232 133.936 103.184C132.485 101.136 131.76 97.7227 131.76 92.944C131.76 89.9573 131.973 86.4587 132.4 82.448C132.912 78.352 133.637 73.9573 134.576 69.264L132.4 69.136C131.291 69.136 130.437 69.3067 129.84 69.648C129.328 69.904 128.901 70.032 128.56 70.032C127.707 70.032 127.28 69.392 127.28 68.112C127.28 66.6613 127.664 65.552 128.432 64.784C129.029 64.1867 130.053 63.888 131.504 63.888C132.187 63.888 132.869 63.9733 133.552 64.144C134.235 64.2293 134.96 64.3573 135.728 64.528L136.496 61.584L138.544 54.16C138.715 53.3067 138.885 52.624 139.056 52.112C139.227 51.6 139.44 50.96 139.696 50.192C141.147 45.84 142.725 41.6587 144.432 37.648C146.139 33.6373 148.613 30.0533 151.856 26.896C152.453 25.9573 153.264 25.488 154.288 25.488C155.056 25.488 155.739 25.8293 156.336 26.512C156.933 27.1093 157.189 27.8347 157.104 28.688C157.104 28.688 157.061 29.7547 156.976 31.888C156.891 34.0213 156.72 36.624 156.464 39.696C156.208 42.6827 155.824 45.5413 155.312 48.272C155.056 49.8933 154.672 51.6427 154.16 53.52C153.733 55.312 153.179 57.1467 152.496 59.024L151.344 62.224ZM140.976 65.296C141.573 65.4667 142.128 65.5947 142.64 65.68C143.237 65.7653 143.877 65.8933 144.56 66.064L145.712 66.192C146.053 65.5947 146.352 64.9547 146.608 64.272C146.864 63.504 147.12 62.8213 147.376 62.224L148.784 58.768C149.125 57.8293 149.424 57.0187 149.68 56.336C149.936 55.568 150.192 54.8853 150.448 54.288C151.387 51.1307 152.155 47.888 152.752 44.56C153.349 41.232 153.648 38.6293 153.648 36.752C153.648 35.216 153.435 34.32 153.008 34.064C152.496 33.9787 151.685 34.96 150.576 37.008C149.467 39.056 148.272 41.744 146.992 45.072C145.712 48.4 144.475 51.9413 143.28 55.696C143.195 56.0373 143.109 56.3787 143.024 56.72C142.939 56.976 142.853 57.2747 142.768 57.616L141.744 62.096L140.976 65.296ZM137.776 82.448C138.715 81.2533 139.739 79.5467 140.848 77.328C141.957 75.024 143.067 72.5493 144.176 69.904H143.152C142.64 69.904 142.085 69.904 141.488 69.904C140.976 69.904 140.507 69.8613 140.08 69.776C139.568 71.9947 139.099 74.2133 138.672 76.432C138.331 78.6507 138.032 80.656 137.776 82.448ZM184.86 90.384C183.751 92.2613 182.343 94.3093 180.636 96.528C178.929 98.6613 177.137 100.496 175.26 102.032C173.468 103.568 171.761 104.336 170.14 104.336C167.495 104.336 165.404 104.208 163.868 103.952C162.417 103.611 161.223 103.141 160.284 102.544C158.663 101.435 157.34 99.984 156.316 98.192C155.292 96.4 154.695 94.5653 154.524 92.688C154.439 92.176 154.396 91.664 154.396 91.152C154.396 90.64 154.396 90.1707 154.396 89.744C154.396 84.7093 155.377 80.272 157.34 76.432C159.303 72.592 162.076 70.288 165.66 69.52C166.769 69.3493 167.623 69.8187 168.22 70.928C168.817 71.952 169.116 73.36 169.116 75.152C169.116 77.8827 168.391 80.8267 166.94 83.984C166.343 85.264 165.703 86.5013 165.02 87.696C164.423 88.8053 163.911 89.7013 163.484 90.384C162.375 92.0053 161.521 93.1147 160.924 93.712C160.412 94.224 160.156 94.736 160.156 95.248C160.156 96.6133 161.009 97.936 162.716 99.216C164.423 100.496 167.068 101.136 170.652 101.136C172.017 101.136 173.425 100.539 174.876 99.344C176.327 98.1493 177.735 96.656 179.1 94.864C180.551 93.072 181.831 91.28 182.94 89.488C183.452 88.6347 183.921 88.208 184.348 88.208C184.86 88.208 185.116 88.592 185.116 89.36C185.116 89.7013 185.031 90.0427 184.86 90.384ZM165.66 74.256C165.319 73.744 164.593 73.872 163.484 74.64C162.46 75.3227 161.521 76.944 160.668 79.504C160.071 81.3813 159.772 83.5573 159.772 86.032C159.772 86.7147 159.772 87.3973 159.772 88.08C159.857 88.7627 159.943 89.4453 160.028 90.128C161.479 87.6533 162.503 85.8187 163.1 84.624C163.783 83.344 164.295 82.0213 164.636 80.656C164.807 79.9733 165.063 79.12 165.404 78.096C165.831 77.072 166.044 76.176 166.044 75.408C166.044 74.896 165.916 74.512 165.66 74.256ZM203.118 82.704C203.118 84.6667 202.947 86.1173 202.606 87.056C202.35 87.9947 201.966 88.7627 201.454 89.36C201.027 89.9573 200.558 90.64 200.046 91.408C199.534 92.176 199.107 93.328 198.766 94.864C198.51 96.3147 198.382 98.448 198.382 101.264C198.382 102.373 198.809 103.269 199.662 103.952C200.515 104.635 201.497 104.976 202.606 104.976C203.118 104.976 203.374 105.147 203.374 105.488C203.374 105.915 203.033 106.427 202.35 107.024C201.753 107.707 201.198 108.048 200.686 108.048C198.809 108.048 197.443 107.323 196.59 105.872C195.737 104.336 195.31 102.715 195.31 101.008C195.31 98.192 195.395 95.9733 195.566 94.352C195.737 92.6453 195.907 91.0667 196.078 89.616C196.249 88.08 196.291 86.2027 196.206 83.984C196.121 82.448 195.907 81.2533 195.566 80.4C195.225 79.4613 194.329 78.992 192.878 78.992C192.11 78.992 191.555 79.12 191.214 79.376C190.958 79.632 190.617 80.0587 190.19 80.656C189.251 82.0213 188.441 83.9413 187.758 86.416C187.161 88.8053 186.649 91.3653 186.222 94.096C185.881 96.7413 185.539 99.1307 185.198 101.264C184.942 103.312 184.686 104.677 184.43 105.36C184.174 105.957 183.833 106.384 183.406 106.64C183.065 106.896 182.681 107.024 182.254 107.024C181.913 107.024 181.571 106.939 181.23 106.768C180.974 106.683 180.761 106.597 180.59 106.512C180.163 106.256 179.95 105.829 179.95 105.232C179.95 104.635 180.078 103.952 180.334 103.184C180.675 102.331 180.931 101.563 181.102 100.88C181.273 100.197 181.529 99.0027 181.87 97.296C182.297 95.504 182.723 93.6693 183.15 91.792C183.577 89.8293 183.918 88.1653 184.174 86.8C184.515 85.3493 184.686 84.624 184.686 84.624C184.259 84.624 183.833 84.6667 183.406 84.752C182.979 84.752 182.553 84.752 182.126 84.752C180.846 84.752 180.206 84.24 180.206 83.216C180.206 82.5333 180.462 81.5093 180.974 80.144C181.486 78.7787 182.425 76.9867 183.79 74.768C184.217 74.0853 185.07 73.232 186.35 72.208C187.63 71.184 188.697 70.7573 189.55 70.928C189.891 70.7573 190.19 70.672 190.446 70.672C190.702 70.672 190.915 70.672 191.086 70.672C192.025 70.672 192.537 71.0133 192.622 71.696C192.793 72.2933 192.835 72.9333 192.75 73.616C192.665 74.2133 192.707 74.4693 192.878 74.384C194.073 73.872 195.267 73.616 196.462 73.616C198.254 73.616 199.79 74.3413 201.07 75.792C202.435 77.1573 203.118 79.4613 203.118 82.704ZM267.46 35.472C266.521 40.9333 265.071 46.2667 263.108 51.472C261.145 56.592 258.969 61.4133 256.58 65.936C254.191 70.3733 251.887 74.4267 249.668 78.096C247.449 81.68 245.615 84.6667 244.164 87.056C242.799 89.36 242.116 90.896 242.116 91.664C242.116 91.664 242.201 92.176 242.372 93.2C242.543 94.224 242.841 95.4187 243.268 96.784C243.695 98.064 244.249 99.216 244.932 100.24C245.615 101.264 246.425 101.776 247.364 101.776C248.559 101.776 249.881 101.392 251.332 100.624C252.868 99.7707 254.063 99.0027 254.916 98.32C256.623 96.8693 257.689 96.144 258.116 96.144C258.372 96.144 258.5 96.272 258.5 96.528C258.5 96.8693 258.287 97.424 257.86 98.192C257.433 98.96 257.007 99.5147 256.58 99.856C255.215 101.051 253.807 102.203 252.356 103.312C250.991 104.336 249.583 104.848 248.132 104.848C245.828 104.848 244.036 104.165 242.756 102.8C241.476 101.349 240.537 99.7707 239.94 98.064C239.343 96.3573 238.831 95.0347 238.404 94.096C236.271 95.0347 234.393 96.0587 232.772 97.168C231.236 98.2773 229.743 99.216 228.292 99.984C226.841 100.752 225.22 101.136 223.428 101.136C220.441 101.136 217.839 100.155 215.62 98.192C213.401 96.144 212.292 93.9253 212.292 91.536C212.292 86.928 213.273 83.216 215.236 80.4C217.284 77.584 219.887 75.536 223.044 74.256C226.201 72.8907 229.401 72.208 232.644 72.208C234.863 72.208 236.911 72.464 238.788 72.976C240.068 68.368 241.177 64.6987 242.116 61.968C243.055 59.152 243.993 56.6347 244.932 54.416C245.956 52.112 247.108 49.5093 248.388 46.608C249.583 43.7067 251.033 40.8053 252.74 37.904C254.532 34.9173 256.495 32.1013 258.628 29.456C259.396 28.432 260.164 27.5787 260.932 26.896C261.785 26.2133 262.767 25.872 263.876 25.872C265.497 25.872 266.564 26.4267 267.076 27.536C267.588 28.56 267.844 29.7973 267.844 31.248C267.844 32.784 267.716 34.192 267.46 35.472ZM264.388 33.424C263.279 34.2773 261.615 36.368 259.396 39.696C257.263 42.9387 255.172 46.6507 253.124 50.832C251.588 54.0747 250.052 57.36 248.516 60.688C246.98 63.9307 245.657 66.7893 244.548 69.264C243.439 71.7387 242.671 73.4027 242.244 74.256C242.841 74.8533 243.14 76.048 243.14 77.84C243.14 79.632 242.884 81.552 242.372 83.6C242.799 83.0027 243.908 81.296 245.7 78.48C247.492 75.664 249.54 72.208 251.844 68.112C254.233 64.016 256.367 59.792 258.244 55.44C259.097 53.392 259.993 50.96 260.932 48.144C261.871 45.328 262.681 42.5973 263.364 39.952C264.047 37.2213 264.388 35.0453 264.388 33.424ZM236.74 81.936C236.825 81.2533 236.911 80.6133 236.996 80.016C237.081 79.4187 237.124 78.9067 237.124 78.48C237.124 77.456 236.825 76.9013 236.228 76.816C235.46 76.56 234.735 76.432 234.052 76.432C231.663 76.432 229.401 77.4133 227.268 79.376C225.22 81.3387 223.343 83.5573 221.636 86.032C221.295 86.544 220.868 87.4827 220.356 88.848C219.929 90.2133 219.716 91.6213 219.716 93.072C219.716 94.1813 219.929 95.2053 220.356 96.144C220.783 96.9973 221.508 97.6373 222.532 98.064C222.703 98.1493 223.044 98.192 223.556 98.192C224.751 98.192 226.201 97.7227 227.908 96.784C229.615 95.8453 231.236 94.608 232.772 93.072C234.393 91.4507 235.545 89.7013 236.228 87.824C236.569 86.9707 236.697 86.032 236.612 85.008C236.612 83.984 236.655 82.96 236.74 81.936ZM292.239 94.48C291.556 96.016 290.063 97.8507 287.759 99.984C285.54 102.117 282.895 103.995 279.823 105.616C276.836 107.152 273.807 107.92 270.735 107.92C266.298 107.92 263.311 106.64 261.775 104.08C260.239 101.435 259.471 97.8933 259.471 93.456C259.471 90.4693 259.727 86.8 260.239 82.448C260.751 78.096 261.519 73.4027 262.543 68.368C263.567 63.3333 264.847 58.256 266.383 53.136C267.919 48.272 269.583 43.536 271.375 38.928C273.167 34.32 275.855 30.3093 279.439 26.896C280.036 25.9573 280.804 25.488 281.743 25.488C282.511 25.488 283.194 25.8293 283.791 26.512C284.388 27.1093 284.644 27.8347 284.559 28.688C284.559 28.688 284.516 29.7547 284.431 31.888C284.431 34.0213 284.303 36.624 284.047 39.696C283.791 42.6827 283.407 45.5413 282.895 48.272C282.127 52.88 280.719 57.744 278.671 62.864C276.708 67.984 274.618 72.6347 272.399 76.816C270.607 80.3147 269.156 82.832 268.047 84.368C267.023 85.904 266.212 87.0133 265.615 87.696C265.103 88.3787 264.719 89.2747 264.463 90.384C264.378 90.9813 264.292 91.664 264.207 92.432C264.207 93.1147 264.207 93.84 264.207 94.608C264.207 96.144 264.292 97.6373 264.463 99.088C264.719 100.453 265.018 101.349 265.359 101.776C266.298 102.715 267.322 103.397 268.431 103.824C269.54 104.251 270.65 104.464 271.759 104.464C272.698 104.464 273.551 104.336 274.319 104.08C277.22 103.227 280.164 101.819 283.151 99.856C286.223 97.8933 288.399 95.9733 289.679 94.096C290.276 93.2427 290.746 92.688 291.087 92.432C291.514 92.0907 291.855 91.92 292.111 91.92C292.538 91.92 292.751 92.2187 292.751 92.816C292.751 92.9867 292.708 93.2427 292.623 93.584C292.538 93.84 292.41 94.1387 292.239 94.48ZM280.591 34.064C279.738 33.8933 278.372 35.7707 276.495 39.696C274.703 43.6213 272.826 48.9547 270.863 55.696C270.266 57.744 269.583 60.3467 268.815 63.504C268.132 66.6613 267.45 69.9467 266.767 73.36C266.084 76.688 265.572 79.7173 265.231 82.448C267.962 76.9013 270.436 71.9093 272.655 67.472C274.874 63.0347 276.58 58.896 277.775 55.056C278.884 51.984 279.695 48.6987 280.207 45.2C280.804 41.7013 281.103 38.928 281.103 36.88C281.103 35.2587 280.932 34.32 280.591 34.064ZM321.054 68.112C321.566 68.88 321.822 69.7333 321.822 70.672C321.822 72.5493 321.182 74.9387 319.902 77.84C318.707 80.656 317.47 83.7707 316.19 87.184C314.91 90.5973 314.227 94.096 314.142 97.68C314.057 102.288 313.971 107.024 313.886 111.888C313.886 116.752 313.331 121.488 312.222 126.096C311.198 130.789 309.022 135.056 305.694 138.896C302.963 142.053 300.062 144.187 296.99 145.296C294.003 146.491 290.846 147.088 287.518 147.088C286.921 147.088 286.281 147.045 285.598 146.96C284.915 146.96 284.233 146.917 283.55 146.832C281.929 146.661 280.179 145.893 278.302 144.528C276.425 143.163 274.803 141.2 273.438 138.64C272.073 136.08 271.39 132.965 271.39 129.296C271.39 128.016 271.518 126.608 271.774 125.072C272.201 122.512 272.841 119.909 273.694 117.264C274.547 114.704 275.785 112.571 277.406 110.864C279.027 109.157 281.203 108.304 283.934 108.304C286.153 108.304 288.243 109.115 290.206 110.736C292.169 112.443 293.79 114.363 295.07 116.496C296.435 118.629 297.331 120.507 297.758 122.128C298.014 123.152 298.227 124.219 298.398 125.328C298.654 126.523 298.782 127.675 298.782 128.784C298.782 130.747 298.398 132.112 297.63 132.88C296.777 133.819 295.71 134.288 294.43 134.288C293.491 134.288 292.382 134.032 291.102 133.52C290.249 133.349 289.225 132.752 288.03 131.728C286.921 130.789 286.366 129.552 286.366 128.016C286.366 126.992 286.579 126.011 287.006 125.072C287.518 124.133 287.945 123.493 288.286 123.152C288.969 122.64 289.438 122.384 289.694 122.384C290.121 122.384 290.419 122.939 290.59 124.048V124.176C290.59 124.517 290.419 124.859 290.078 125.2C289.737 125.541 289.609 126.139 289.694 126.992C289.865 128.187 290.334 129.04 291.102 129.552C291.87 130.149 292.425 130.448 292.766 130.448C293.875 130.448 294.43 129.339 294.43 127.12C294.43 125.328 293.918 123.152 292.894 120.592C292.041 118.459 290.846 116.624 289.31 115.088C287.774 113.552 285.982 112.613 283.934 112.272C282.91 112.101 281.801 112.357 280.606 113.04C279.326 113.723 278.217 115.045 277.278 117.008C276.681 118.117 276.297 119.355 276.126 120.72C275.87 122.085 275.742 123.493 275.742 124.944C275.742 126.565 275.87 128.101 276.126 129.552C276.297 134.245 277.534 137.659 279.838 139.792C282.057 142.011 285.001 143.12 288.67 143.12C289.182 143.12 289.694 143.077 290.206 142.992C290.803 142.992 291.401 142.949 291.998 142.864C294.558 142.523 297.033 141.243 299.422 139.024C301.811 136.805 303.817 134.245 305.438 131.344C306.803 128.869 307.657 126.821 307.998 125.2C308.425 123.579 308.638 121.616 308.638 119.312C308.638 117.861 308.595 116.24 308.51 114.448C308.51 112.656 308.51 110.437 308.51 107.792C308.51 106.085 308.51 104.165 308.51 102.032C308.595 99.8987 308.681 97.5093 308.766 94.864C304.243 97.2533 300.531 98.448 297.63 98.448C295.326 98.448 293.193 97.7227 291.23 96.272C290.547 95.76 290.035 95.12 289.694 94.352C289.438 93.4987 289.31 92.6027 289.31 91.664C289.31 89.616 289.822 87.3547 290.846 84.88C291.87 82.32 293.065 79.9733 294.43 77.84C295.795 75.6213 296.99 74 298.014 72.976C298.611 71.952 299.294 71.44 300.062 71.44C300.745 71.44 301.299 71.8667 301.726 72.72C302.153 73.488 302.153 74.0427 301.726 74.384C300.617 75.3227 299.678 76.4747 298.91 77.84C298.142 79.2053 297.417 80.6133 296.734 82.064C296.137 83.5147 295.838 85.392 295.838 87.696C295.838 88.5493 295.881 89.4027 295.966 90.256C296.137 91.1093 296.393 91.7493 296.734 92.176C297.161 92.688 297.929 92.944 299.038 92.944C300.062 92.944 301.214 92.7307 302.494 92.304C303.774 91.792 304.841 91.152 305.694 90.384C307.742 88.5067 309.193 86.544 310.046 84.496C310.985 82.3627 311.71 80.3147 312.222 78.352C312.478 77.328 312.777 76.1333 313.118 74.768C313.459 73.3173 313.63 71.8667 313.63 70.416C313.63 69.904 314.185 69.2213 315.294 68.368C316.403 67.4293 317.555 66.96 318.75 66.96C319.689 66.96 320.457 67.344 321.054 68.112ZM360.096 55.44C360.096 55.44 360.096 55.7387 360.096 56.336C360.181 56.9333 360.011 57.6587 359.584 58.512C359.157 59.3653 358.219 60.2187 356.768 61.072C356.256 61.4133 355.317 61.6693 353.952 61.84C352.587 62.0107 351.051 62.1387 349.344 62.224C348.405 64.6987 347.381 67.216 346.272 69.776C345.163 72.2507 344.011 74.5973 342.816 76.816C341.024 80.2293 339.488 82.7467 338.208 84.368C337.013 85.9893 336.075 87.2267 335.392 88.08C334.709 88.848 334.24 89.7867 333.984 90.896C333.899 91.408 333.813 91.8773 333.728 92.304C333.728 92.7307 333.728 93.1573 333.728 93.584C333.728 96.7413 334.624 99.0453 336.416 100.496C338.293 101.947 340.085 102.672 341.792 102.672C343.755 102.672 345.717 101.989 347.68 100.624C349.643 99.1733 351.264 97.8507 352.544 96.656C353.568 95.8027 354.336 95.376 354.848 95.376C355.189 95.376 355.36 95.5467 355.36 95.888C355.36 96.4853 354.891 97.424 353.952 98.704C353.44 99.3867 352.587 100.325 351.392 101.52C350.197 102.715 348.704 103.824 346.912 104.848C345.12 105.787 343.115 106.256 340.896 106.256C336.459 106.256 333.472 105.232 331.936 103.184C330.485 101.136 329.76 97.7227 329.76 92.944C329.76 89.1893 330.144 84.5813 330.912 79.12C331.68 73.5733 332.875 67.728 334.496 61.584C334.069 61.584 333.643 61.584 333.216 61.584C332.789 61.4987 332.405 61.456 332.064 61.456C330.955 61.456 330.101 61.6267 329.504 61.968C328.992 62.224 328.565 62.352 328.224 62.352C327.371 62.352 326.944 61.712 326.944 60.432C326.944 58.9813 327.328 57.872 328.096 57.104C328.693 56.5067 329.717 56.208 331.168 56.208C332.277 56.208 333.771 56.4213 335.648 56.848C335.819 56.336 335.989 55.8667 336.16 55.44C336.331 55.0133 336.459 54.5867 336.544 54.16C336.715 53.3067 336.885 52.624 337.056 52.112C337.227 51.6 337.44 50.96 337.696 50.192C339.147 45.84 340.725 41.6587 342.432 37.648C344.139 33.6373 346.613 30.0533 349.856 26.896C350.453 25.9573 351.264 25.488 352.288 25.488C353.056 25.488 353.739 25.8293 354.336 26.512C354.933 27.1093 355.189 27.8347 355.104 28.688C355.104 28.688 355.061 29.7547 354.976 31.888C354.891 34.0213 354.72 36.624 354.464 39.696C354.208 42.6827 353.824 45.5413 353.312 48.272C353.056 49.8933 352.672 51.6427 352.16 53.52C351.733 55.312 351.179 57.1467 350.496 59.024C351.008 59.1093 351.477 59.1947 351.904 59.28C352.416 59.28 352.885 59.28 353.312 59.28C354.592 59.28 355.573 59.1093 356.256 58.768C357.024 58.3413 357.451 57.9147 357.536 57.488C357.707 57.0613 357.792 56.848 357.792 56.848C357.792 55.1413 358.219 54.288 359.072 54.288C359.499 54.288 359.84 54.672 360.096 55.44ZM351.008 34.064C350.496 33.9787 349.685 34.96 348.576 37.008C347.467 39.056 346.272 41.744 344.992 45.072C343.712 48.4 342.475 51.9413 341.28 55.696C341.195 56.0373 341.109 56.3787 341.024 56.72C340.939 56.976 340.853 57.2747 340.768 57.616C341.365 57.7867 341.963 57.9147 342.56 58C343.157 58.0853 343.797 58.2133 344.48 58.384C344.821 58.4693 345.205 58.512 345.632 58.512C346.059 58.512 346.443 58.5973 346.784 58.768C347.125 57.8293 347.424 57.0187 347.68 56.336C347.936 55.568 348.192 54.8853 348.448 54.288C349.387 51.1307 350.155 47.888 350.752 44.56C351.349 41.232 351.648 38.6293 351.648 36.752C351.648 35.216 351.435 34.32 351.008 34.064ZM345.376 62.224H343.072C342.475 62.224 341.877 62.224 341.28 62.224C340.768 62.224 340.256 62.1813 339.744 62.096C338.976 65.3387 338.208 68.8373 337.44 72.592C336.757 76.2613 336.203 79.5467 335.776 82.448C336.8 81.2533 337.867 79.5467 338.976 77.328C340.085 75.1093 341.195 72.6773 342.304 70.032C343.413 67.3013 344.437 64.6987 345.376 62.224ZM380.044 54.288C379.447 54.288 378.849 54.2027 378.252 54.032C377.74 53.776 377.228 53.4773 376.716 53.136C375.607 52.624 375.052 51.5147 375.052 49.808C375.052 49.04 375.223 48.1867 375.564 47.248C375.991 46.3093 376.631 45.4133 377.484 44.56C378.081 43.9627 378.807 43.664 379.66 43.664C380.428 43.664 381.153 43.9627 381.836 44.56C382.177 44.9013 382.391 45.456 382.476 46.224C382.647 46.9067 382.732 47.6747 382.732 48.528C382.732 49.552 382.647 50.576 382.476 51.6C382.305 52.5387 382.007 53.2213 381.58 53.648C380.983 54.0747 380.471 54.288 380.044 54.288ZM366.988 104.592C363.831 104.592 361.655 103.867 360.46 102.416C359.265 100.965 358.668 99.216 358.668 97.168C358.668 96.2293 358.753 95.2907 358.924 94.352C359.095 93.4133 359.308 92.4747 359.564 91.536C358.711 93.072 357.388 94.864 355.596 96.912C353.804 98.8747 352.14 100.453 350.604 101.648C350.263 101.904 349.921 102.032 349.58 102.032C349.068 102.032 348.812 101.733 348.812 101.136C348.812 100.453 349.068 99.856 349.58 99.344C353.164 95.5893 355.895 92.56 357.772 90.256C359.649 87.8667 361.1 85.8613 362.124 84.24C363.148 82.6187 364.129 81.1253 365.068 79.76C365.836 77.2853 366.519 74.896 367.116 72.592C367.799 70.2027 368.823 67.7707 370.188 65.296C370.615 64.528 371.468 64.144 372.748 64.144C373.601 64.144 374.369 64.3573 375.052 64.784C375.735 65.2107 376.076 65.936 376.076 66.96C376.076 67.472 375.948 68.0693 375.692 68.752C374.753 71.3973 373.729 73.6587 372.62 75.536C371.596 77.328 370.231 79.632 368.524 82.448C366.732 85.3493 365.281 88.1653 364.172 90.896C363.148 93.6267 362.636 95.9307 362.636 97.808C362.636 99.0027 362.892 99.984 363.404 100.752C364.001 101.52 364.855 101.904 365.964 101.904C368.353 101.989 370.188 101.605 371.468 100.752C372.748 99.8133 373.815 98.9173 374.668 98.064C375.777 96.8693 376.716 95.76 377.484 94.736C378.337 93.712 379.105 92.816 379.788 92.048C380.3 91.536 380.556 91.6213 380.556 92.304C380.556 92.7307 380.428 93.2853 380.172 93.968C380.001 94.6507 379.788 95.1627 379.532 95.504C378.679 96.6987 377.655 98.0213 376.46 99.472C375.351 100.923 374.028 102.16 372.492 103.184C370.956 104.123 369.121 104.592 366.988 104.592ZM401.877 97.552C399.744 100.283 397.738 102.203 395.861 103.312C393.984 104.421 392.192 105.104 390.485 105.36C388.778 105.531 386.986 105.616 385.109 105.616C382.208 105.616 379.946 104.677 378.325 102.8C376.789 100.837 375.936 98.576 375.765 96.016C375.68 94.3093 375.765 92.2613 376.021 89.872C376.362 87.4827 377.216 84.88 378.581 82.064C379.861 79.4187 381.226 77.4987 382.677 76.304C384.128 75.024 385.536 74.128 386.901 73.616C388.266 73.104 389.376 72.6773 390.229 72.336C390.912 72.08 391.637 71.952 392.405 71.952C394.112 71.952 395.477 72.3787 396.501 73.232C396.928 73.5733 397.184 74.0427 397.269 74.64C397.44 75.152 397.525 75.7067 397.525 76.304C397.525 76.6453 397.482 77.0293 397.397 77.456C397.397 77.7973 397.354 78.1387 397.269 78.48C397.098 79.5893 396.586 81.04 395.733 82.832C394.965 84.5387 394.24 86.2027 393.557 87.824C393.045 88.336 392.49 88.592 391.893 88.592C391.21 88.592 391.04 88.208 391.381 87.44C391.808 85.7333 392.362 84.3253 393.045 83.216C393.813 82.0213 394.197 80.9973 394.197 80.144C394.282 79.888 394.325 79.632 394.325 79.376C394.325 79.12 394.325 78.9067 394.325 78.736C394.325 77.5413 393.813 76.7307 392.789 76.304C392.277 76.1333 391.893 76.048 391.637 76.048C390.528 76.048 389.248 76.56 387.797 77.584C386.346 78.608 385.152 80.016 384.213 81.808C383.104 83.7707 382.293 85.9893 381.781 88.464C381.354 90.9387 381.141 93.0293 381.141 94.736C381.141 96.784 381.866 98.4907 383.317 99.856C384.853 101.136 386.688 101.691 388.821 101.52C391.21 101.264 393.514 100.624 395.733 99.6C398.037 98.576 400 96.9973 401.621 94.864C401.877 94.6933 402.133 94.608 402.389 94.608C402.645 94.608 402.773 94.7787 402.773 95.12C402.773 95.4613 402.645 95.9307 402.389 96.528C402.218 97.04 402.048 97.3813 401.877 97.552ZM429.47 97.296C428.361 98.4053 427.379 99.5147 426.526 100.624C425.673 101.733 423.795 103.013 420.894 104.464C420.553 104.976 419.785 105.744 418.59 106.768C417.481 107.792 415.262 108.389 411.934 108.56C409.715 108.645 407.923 108.091 406.558 106.896C405.278 105.787 404.297 104.421 403.614 102.8C402.931 101.179 402.334 99.6853 401.822 98.32C401.737 98.4053 401.353 98.7467 400.67 99.344C399.987 99.9413 399.305 100.539 398.622 101.136C397.854 101.733 397.385 102.117 397.214 102.288C397.129 102.373 396.958 102.416 396.702 102.416C396.275 102.416 395.934 102.203 395.678 101.776C395.337 101.264 395.337 100.837 395.678 100.496C397.299 98.8747 398.537 97.6373 399.39 96.784C400.243 95.8453 401.011 94.9493 401.694 94.096C402.377 93.2427 403.187 92.176 404.126 90.896C405.577 88.6773 407.113 86.7147 408.734 85.008C410.441 83.216 411.507 81.8933 411.934 81.04C412.019 80.9547 412.062 80.784 412.062 80.528C412.062 80.272 411.934 80.0587 411.678 79.888C411.507 79.7173 411.379 79.504 411.294 79.248C410.953 77.8827 410.782 76.6027 410.782 75.408C410.782 73.5307 411.507 71.312 412.958 68.752C413.555 68.3253 414.366 67.984 415.39 67.728C416.414 67.3867 417.225 67.344 417.822 67.6C418.505 67.9413 418.931 68.3253 419.102 68.752C419.358 69.1787 419.571 69.7333 419.742 70.416C419.742 70.5013 419.742 70.5867 419.742 70.672C419.827 70.7573 419.87 70.8853 419.87 71.056C419.87 71.568 419.785 72.1227 419.614 72.72C419.443 73.3173 419.23 73.9573 418.974 74.64C418.974 74.9813 418.547 75.6213 417.694 76.56C416.926 77.4987 416.67 78.096 416.926 78.352C417.438 79.4613 418.291 80.912 419.486 82.704C420.937 84.752 421.918 86.6293 422.43 88.336C423.027 90.0427 423.326 91.5787 423.326 92.944C423.326 94.5653 423.07 95.9733 422.558 97.168C422.131 98.3627 421.79 99.3867 421.534 100.24C422.302 100.325 423.198 99.9413 424.222 99.088C425.246 98.1493 426.227 97.1253 427.166 96.016C428.19 94.8213 428.958 93.968 429.47 93.456C429.982 92.944 430.366 92.688 430.622 92.688C431.049 92.688 431.049 93.328 430.622 94.608C430.281 95.888 429.897 96.784 429.47 97.296ZM417.054 72.72C417.054 72.3787 417.011 71.9947 416.926 71.568C416.841 71.1413 416.585 70.8853 416.158 70.8H416.03C415.603 70.8 415.262 71.0133 415.006 71.44C414.75 71.7813 414.537 72.1227 414.366 72.464C414.11 73.1467 413.854 73.744 413.598 74.256C413.427 74.6827 413.513 75.1093 413.854 75.536C414.195 75.7067 414.793 75.3653 415.646 74.512C416.585 73.5733 417.054 72.976 417.054 72.72ZM417.31 93.2C417.31 91.92 417.054 90.5547 416.542 89.104C416.115 87.568 415.603 86.2027 415.006 85.008C414.494 83.8133 414.11 83.0453 413.854 82.704C413.854 82.704 413.342 83.344 412.318 84.624C411.294 85.8187 410.185 87.1413 408.99 88.592C408.222 89.4453 407.454 90.5547 406.686 91.92C405.918 93.2853 405.449 94.48 405.278 95.504C405.278 95.504 405.662 96.016 406.43 97.04C407.198 97.9787 408.137 98.8747 409.246 99.728C410.441 100.581 411.593 100.88 412.702 100.624C414.409 100.197 415.603 99.216 416.286 97.68C416.969 96.0587 417.31 94.5653 417.31 93.2ZM412.958 103.184H411.806C411.465 103.184 411.081 103.184 410.654 103.184C410.227 103.099 409.801 103.013 409.374 102.928C408.947 102.757 408.307 102.416 407.454 101.904C406.601 101.392 406.174 101.136 406.174 101.136C406.174 101.136 406.131 101.221 406.046 101.392C406.046 101.563 406.046 101.776 406.046 102.032C406.046 102.373 406.089 102.757 406.174 103.184C406.345 103.611 406.643 104.037 407.07 104.464C407.753 104.976 408.35 105.403 408.862 105.744C409.374 106 410.057 106 410.91 105.744C411.507 105.573 411.977 105.104 412.318 104.336C412.745 103.568 412.958 103.184 412.958 103.184Z" fill="#6547A1"/>
</svg>
